<?xml version="1.0" encoding="utf-8"?>
<!-- Generator: Adobe Illustrator 26.0.2, SVG Export Plug-In . SVG Version: 6.00 Build 0)  -->
<svg version="1.1" id="Layer_1" xmlns="http://www.w3.org/2000/svg" x="0px" y="0px"
     viewBox="0 0 21.2 24" style="enable-background:new 0 0 21.2 24;" xml:space="preserve">
<g>
	<path d="M10.6,10.4C9.7,10.4,9,11.1,9,12s0.7,1.6,1.6,1.6s1.6-0.7,1.6-1.6S11.5,10.4,10.6,10.4z"/>
  <path d="M10.6,6.7c0.9,0,1.6-0.7,1.6-1.6s-0.7-1.6-1.6-1.6S9,4.2,9,5.1S9.7,6.7,10.6,6.7z"/>
  <path d="M10.6,17.3C9.7,17.3,9,18.1,9,19s0.7,1.6,1.6,1.6s1.6-0.7,1.6-1.6S11.5,17.3,10.6,17.3z"/>
</g>
</svg>
